<svg width="114.08000183105469px" height="189.92000732421874px" xmlns="http://www.w3.org/2000/svg" viewBox="192.95999908447266 -19.960003662109372 114.08000183105469 189.92000732421874" style="background: rgba(0, 0, 0, 0);" preserveAspectRatio="xMidYMid"><defs><filter id="editing-vr"><feFlood flood-color="#f00" flood-opacity="0.7" result="c1"></feFlood><feFlood flood-color="#00f" flood-opacity="0.7" result="c3"></feFlood><feComposite operator="in" in="c1" in2="SourceAlpha" result="text-c1"></feComposite><feComposite operator="in" in="c3" in2="SourceAlpha" result="text-c3"></feComposite><feOffset in="text-c1" dx="3" dy="-1" result="text1"></feOffset><feOffset in="text-c3" dx="-3" dy="1" result="text3"></feOffset><feBlend in="SourceGraphic" in2="text1" mode="multiply" result="text4"></feBlend><feBlend in="text4" in2="text3" mode="multiply"></feBlend></filter></defs><g filter="url(#editing-vr)"><g transform="translate(217.2187430858612, 111.00000095367432)"><path d="M37.50-31.60L38.20-13L39-5L47.10-3L46.60 1L33.40 0L20 1L20.20-3L28.10-4.80L28.60-12.90L28.90-29.10L11.70-58.20L5.70-65.20L-1.30-67L-0.80-71L12.30-70L26.30-71L26.10-67L18.90-65.40L21.80-58.30L29.40-45.40L34.50-35.80L34.90-35.80L39.80-44.50L48.40-58.50L51-65.80L43.80-67L44.30-71L55.60-70L66.30-71L66.10-67L58.80-65.40L53.70-58.30L37.50-31.60Z" fill="#444"></path></g></g><style>text {
  font-size: 64px;
  font-family: Arial Black;
  dominant-baseline: central;
  text-anchor: middle;
}</style></svg>